<svg width="169" height="28" viewBox="0 0 169 28" fill="none" xmlns="http://www.w3.org/2000/svg">
<path d="M52.226 2C58.05 7.82403 58.05 17.2666 52.226 23.0907C46.4019 17.2666 46.4019 7.82403 52.226 2Z" fill="#F46D3C"/>
<path d="M67 8C67 16.2843 60.2843 23 52 23C52 14.7157 58.7157 8 67 8Z" fill="#F46D3C"/>
<path d="M37 8C45.2843 8 52 14.7157 52 23C43.7157 23 37 16.2843 37 8Z" fill="#F46D3C"/>
<path d="M8.06564 6.34188C9.53393 6.34188 10.8633 6.68091 12.0538 7.35897C13.2443 8.01709 14.1769 8.95442 14.8515 10.1709C15.5261 11.3875 15.8634 12.7735 15.8634 14.3291C15.8634 15.8846 15.5261 17.2707 14.8515 18.4872C14.1769 19.7037 13.2443 20.651 12.0538 21.3291C10.8633 22.0071 9.53393 22.3462 8.06564 22.3462C6.75609 22.3462 5.57551 22.067 4.5239 21.5085C3.49214 20.9501 2.65878 20.1425 2.02385 19.0855V22.1966H0V0H2.11314V9.45299C2.76791 8.4359 3.60126 7.66809 4.61319 7.14957C5.64496 6.61111 6.79578 6.34188 8.06564 6.34188ZM7.91683 20.4615C9.00812 20.4615 10.0002 20.2123 10.8931 19.7137C11.786 19.1952 12.4804 18.4672 12.9765 17.5299C13.4923 16.5926 13.7503 15.5256 13.7503 14.3291C13.7503 13.1325 13.4923 12.0655 12.9765 11.1282C12.4804 10.1909 11.786 9.47293 10.8931 8.97436C10.0002 8.45584 9.00812 8.19658 7.91683 8.19658C6.8057 8.19658 5.80369 8.45584 4.91081 8.97436C4.03778 9.47293 3.34332 10.1909 2.82744 11.1282C2.3314 12.0655 2.08338 13.1325 2.08338 14.3291C2.08338 15.5256 2.3314 16.5926 2.82744 17.5299C3.34332 18.4672 4.03778 19.1952 4.91081 19.7137C5.80369 20.2123 6.8057 20.4615 7.91683 20.4615Z" fill="#F46D3C"/>
<path d="M33.8023 14.9872H20.7068C20.8259 16.6225 21.4509 17.9487 22.5818 18.9658C23.7128 19.963 25.1414 20.4615 26.8676 20.4615C27.8399 20.4615 28.7328 20.292 29.5463 19.953C30.3598 19.594 31.0642 19.0755 31.6594 18.3974L32.8499 19.7735C32.1555 20.6111 31.2824 21.2493 30.2308 21.688C29.199 22.1268 28.0581 22.3462 26.8081 22.3462C25.2009 22.3462 23.7723 22.0071 22.5223 21.3291C21.2921 20.6311 20.3298 19.6738 19.6354 18.4573C18.9409 17.2407 18.5937 15.8647 18.5937 14.3291C18.5937 12.7934 18.9211 11.4174 19.5758 10.2009C20.2504 8.98433 21.1632 8.03704 22.314 7.35897C23.4846 6.68091 24.7942 6.34188 26.2426 6.34188C27.6911 6.34188 28.9907 6.68091 30.1415 7.35897C31.2923 8.03704 32.1951 8.98433 32.8499 10.2009C33.5047 11.3974 33.8321 12.7735 33.8321 14.3291L33.8023 14.9872ZM26.2426 8.16667C24.7347 8.16667 23.4648 8.65527 22.433 9.63248C21.4211 10.5897 20.8457 11.8462 20.7068 13.4017H31.8082C31.6693 11.8462 31.084 10.5897 30.0522 9.63248C29.0403 8.65527 27.7704 8.16667 26.2426 8.16667Z" fill="#F46D3C"/>
<path d="M85.0909 14.2991C85.0909 14.5584 85.071 14.9274 85.0313 15.406H72.5608C72.7791 16.5826 73.3446 17.5199 74.2573 18.2179C75.1899 18.896 76.3407 19.235 77.7098 19.235C79.4558 19.235 80.8943 18.6567 82.0253 17.5L84.0194 19.8034C83.3051 20.661 82.4023 21.3091 81.311 21.7479C80.2197 22.1866 78.9896 22.406 77.6205 22.406C75.8744 22.406 74.3367 22.057 73.0073 21.359C71.6779 20.661 70.6461 19.6937 69.912 18.4573C69.1977 17.2009 68.8405 15.7849 68.8405 14.2094C68.8405 12.6538 69.1878 11.2578 69.8822 10.0214C70.5965 8.76496 71.5787 7.78775 72.8287 7.08974C74.0787 6.39174 75.4875 6.04274 77.055 6.04274C78.6026 6.04274 79.9816 6.39174 81.192 7.08974C82.4222 7.76781 83.3746 8.73504 84.0492 9.99145C84.7436 11.2279 85.0909 12.6638 85.0909 14.2991ZM77.055 9.03419C75.8645 9.03419 74.8526 9.39316 74.0192 10.1111C73.2057 10.8091 72.7097 11.7464 72.5311 12.9231H81.5491C81.3904 11.7664 80.9043 10.8291 80.0908 10.1111C79.2773 9.39316 78.2653 9.03419 77.055 9.03419Z" fill="#F46D3C"/>
<path d="M88.6645 0H92.3848V22.1966H88.6645V0Z" fill="#F46D3C"/>
<path d="M97.2677 0H100.988V22.1966H97.2677V0Z" fill="#F46D3C"/>
<path d="M114.621 21.2393C114.224 21.5983 113.728 21.8775 113.133 22.0769C112.558 22.2564 111.952 22.3462 111.317 22.3462C109.849 22.3462 108.718 21.9473 107.925 21.1496C107.131 20.3519 106.734 19.2251 106.734 17.7692V8.25641H103.936V6.46154H106.734V3.02137H108.847V6.46154H113.609V8.25641H108.847V17.6496C108.847 18.5869 109.075 19.3048 109.532 19.8034C110.008 20.2821 110.683 20.5214 111.556 20.5214C111.992 20.5214 112.409 20.4516 112.806 20.312C113.222 20.1724 113.579 19.9729 113.877 19.7137L114.621 21.2393Z" fill="#F46D3C"/>
<path d="M120.492 9.54274C120.988 8.48576 121.722 7.68804 122.694 7.14957C123.686 6.61111 124.907 6.34188 126.355 6.34188V8.40598L125.849 8.37607C124.202 8.37607 122.912 8.88462 121.98 9.90171C121.047 10.9188 120.581 12.3447 120.581 14.1795V22.1966H118.468V6.46154H120.492V9.54274Z" fill="#F46D3C"/>
<path d="M130.181 6.46154H132.294V22.1966H130.181V6.46154ZM131.253 3.02137C130.816 3.02137 130.449 2.8718 130.151 2.57265C129.854 2.27351 129.705 1.91453 129.705 1.49573C129.705 1.09687 129.854 0.747864 130.151 0.448718C130.449 0.149572 130.816 0 131.253 0C131.689 0 132.056 0.149572 132.354 0.448718C132.651 0.72792 132.8 1.06695 132.8 1.46581C132.8 1.90456 132.651 2.27351 132.354 2.57265C132.056 2.8718 131.689 3.02137 131.253 3.02137Z" fill="#F46D3C"/>
<path d="M146.24 6.34188C147.708 6.34188 149.037 6.68091 150.228 7.35897C151.418 8.01709 152.351 8.95442 153.025 10.1709C153.7 11.3875 154.037 12.7735 154.037 14.3291C154.037 15.9046 153.7 17.3006 153.025 18.5171C152.351 19.7336 151.418 20.6809 150.228 21.359C149.057 22.0171 147.728 22.3462 146.24 22.3462C144.97 22.3462 143.819 22.0869 142.787 21.5684C141.775 21.0299 140.942 20.2521 140.287 19.235V28H138.174V6.46154H140.198V9.57265C140.833 8.53561 141.666 7.73789 142.698 7.17949C143.749 6.62108 144.93 6.34188 146.24 6.34188ZM146.091 20.4615C147.182 20.4615 148.174 20.2123 149.067 19.7137C149.96 19.1952 150.654 18.4672 151.15 17.5299C151.666 16.5926 151.924 15.5256 151.924 14.3291C151.924 13.1325 151.666 12.0755 151.15 11.1581C150.654 10.2208 149.96 9.49288 149.067 8.97436C148.174 8.45584 147.182 8.19658 146.091 8.19658C144.98 8.19658 143.978 8.45584 143.085 8.97436C142.212 9.49288 141.517 10.2208 141.001 11.1581C140.505 12.0755 140.257 13.1325 140.257 14.3291C140.257 15.5256 140.505 16.5926 141.001 17.5299C141.517 18.4672 142.212 19.1952 143.085 19.7137C143.978 20.2123 144.98 20.4615 146.091 20.4615Z" fill="#F46D3C"/>
<path d="M162.542 22.3462C161.272 22.3462 160.051 22.1667 158.881 21.8077C157.73 21.4288 156.827 20.9601 156.172 20.4017L157.125 18.7265C157.78 19.245 158.603 19.6738 159.595 20.0128C160.587 20.3319 161.619 20.4915 162.69 20.4915C164.119 20.4915 165.171 20.2721 165.845 19.8333C166.54 19.3746 166.887 18.7365 166.887 17.9188C166.887 17.3405 166.698 16.8917 166.321 16.5727C165.944 16.2336 165.468 15.9843 164.893 15.8248C164.317 15.6453 163.553 15.4758 162.601 15.3162C161.331 15.0769 160.309 14.8376 159.536 14.5983C158.762 14.339 158.097 13.9103 157.541 13.312C157.006 12.7137 156.738 11.886 156.738 10.8291C156.738 9.51282 157.283 8.4359 158.375 7.59829C159.466 6.76068 160.984 6.34188 162.928 6.34188C163.94 6.34188 164.952 6.48148 165.964 6.76068C166.976 7.01994 167.81 7.36895 168.464 7.80769L167.542 9.51282C166.252 8.61539 164.714 8.16667 162.928 8.16667C161.579 8.16667 160.557 8.40598 159.863 8.88462C159.188 9.36325 158.851 9.99145 158.851 10.7692C158.851 11.3675 159.039 11.8462 159.416 12.2051C159.813 12.5641 160.299 12.8333 160.875 13.0128C161.45 13.1724 162.244 13.3419 163.256 13.5214C164.506 13.7607 165.508 14 166.262 14.2393C167.016 14.4786 167.661 14.8875 168.196 15.4658C168.732 16.0442 169 16.8419 169 17.859C169 19.235 168.425 20.3319 167.274 21.1496C166.143 21.9473 164.565 22.3462 162.542 22.3462Z" fill="#F46D3C"/>
</svg>
